# xmcd
#
# Track frame offsets: 
#        150
#        14669
#        29768
#        44967
#        56336
#        70502
#        84433
#        100024
#        115358
#        132704
#        148350
#        159139
#        174387
#        186069
#
# Disc length: 2613 seconds
#
# Revision: 7
# Processed by: cddbd v1.5.2PL0 Copyright (c) Steve Scherf et al.
# Submitted via: ExactAudioCopy v1.3
#
DISCID=c80a330e
DTITLE=Ricky Van Shelton - Greatest Hits Plus
DYEAR=1992
DGENRE=Country
TTITLE0=Just As I Am
TTITLE1=Wild Man
TTITLE2=Somebody Lied
TTITLE3=I've Cried My Last Tear For You
TTITLE4=I'll Leave This World Loving You
TTITLE5=Statue Of A Fool
TTITLE6=I Am A Simple Man
TTITLE7=Life Turned Her That Way
TTITLE8=Keep It Between The Lines
TTITLE9=Rockin' Years (With Dolly Parton)
TTITLE10=From A Jack To A King
TTITLE11=Living Proof
TTITLE12=Don't We All Have The Right
TTITLE13=Wear My Ring Around Your Neck (Bonus Cut)
EXTD=
EXTT0=
EXTT1=
EXTT2=
EXTT3=
EXTT4=
EXTT5=
EXTT6=
EXTT7=
EXTT8=
EXTT9=
EXTT10=
EXTT11=
EXTT12=
EXTT13=
PLAYORDER=
